# xmcd
# 
# Track frame offsets:
#     150
#     13179
#     24798
#     46040
#     59827
#     75056
#     103253
#     136626
#     150848
#     164877
#     179978
#     194757
#     208259
#     249173
# 
# Disc length: 3635
# 
# Revision: 9
# Processed by: cddbd v1.5.2PL0 Copyright (c) Steve Scherf et al.
# Submitted via: fre:ac v1.1beta1pre5
# 
DISCID=b90e310e
DTITLE=Various Artist - JAZZ Cafe - CAPPUCCIMO
DYEAR=2001
DGENRE=Jazz
TTITLE0=Tony Bennett - 01 I Left My Heart In San Francisco
TTITLE1=Carman McRae - 02 I'm Gonna Lock My Heart (And Throw Away The Key)
TTITLE2=Chet Baker - 03 She Was Too Good To Me
TTITLE3=Doris Day - 04 The Very Thought Of You
TTITLE4=Sarah Vaughan - 05 The Nearness Of You
TTITLE5=Duke Ellington - 06 Autumn Leaves
TTITLE6=Dave Brubeck - 07 Like Someone In Love
TTITLE7=Mildred Bailey and Her Orchestra - 08 They Can't Take That Away From You
TTITLE8=Duke Ellington - 09 Do Nothing Till You Hear From Me
TTITLE9=Benny Goodman - 10 The Way You Look Tonight
TTITLE10=Dave Brubeck and Louis Armstrong - 11 Summer Songs
TTITLE11=Chet Baker - 12 Love Walk In
TTITLE12=Miles Davis - 13 So What
TTITLE13=Bill Evans - 14 Waltz For Debby
EXTD=YEAR: 2001
EXTT0=
EXTT1=
EXTT2=
EXTT3=
EXTT4=
EXTT5=
EXTT6=
EXTT7=
EXTT8=
EXTT9=
EXTT10=
EXTT11=
EXTT12=
EXTT13=
PLAYORDER=
